<?xml version="1.0" encoding="UTF-8" standalone="no"?>
<svg width="167px" height="14px" viewBox="0 0 167 14" version="1.1" xmlns="http://www.w3.org/2000/svg" xmlns:xlink="http://www.w3.org/1999/xlink">
    <!-- Generator: Sketch 39.1 (31720) - http://www.bohemiancoding.com/sketch -->
    <title>FLOW FASHION Logo</title>
    <desc>Created with Sketch.</desc>
    <defs></defs>
    <g id="Page-1" stroke="none" stroke-width="1" fill="none" fill-rule="evenodd">
        <g id="Style-Tile" transform="translate(-40.000000, -27.000000)" fill="#1C2223">
            <g id="nav-example" transform="translate(40.000000, 0.000000)">
                <path d="M3.746,34.816 L3.746,40 L5.87,40 L5.87,34.816 L11.45,34.816 L11.45,32.854 L5.87,32.854 L5.87,29.398 L12.116,29.398 L12.134,27.418 L3.746,27.418 L3.746,32.854 L1.87,32.854 L0.87,34.816 L3.746,34.816 Z M16.618,40 L16.618,27.418 L18.742,27.418 L18.742,37.984 L24.484,37.984 L24.484,40 L16.618,40 L16.618,40 Z M34.26,29.056 C33.0119938,29.056 31.9590043,29.4999956 31.101,30.388 C30.2429957,31.2760044 29.814,32.3529937 29.814,33.619 C29.814,34.8850063 30.2429957,35.9619956 31.101,36.85 C31.9590043,37.7380044 33.0119938,38.182 34.26,38.182 C35.5080062,38.182 36.5609957,37.7380044 37.419,36.85 C38.2770043,35.9619956 38.706,34.8850063 38.706,33.619 C38.706,32.3529937 38.2770043,31.2760044 37.419,30.388 C36.5609957,29.4999956 35.5080062,29.056 34.26,29.056 L34.26,29.056 L34.26,29.056 Z M34.26,40.126 C32.3879906,40.126 30.8160064,39.5050062 29.544,38.263 C28.2719936,37.0209938 27.636,35.4730093 27.636,33.619 C27.636,31.7649907 28.2719936,30.2170062 29.544,28.975 C30.8160064,27.7329938 32.3879906,27.112 34.26,27.112 C36.1320094,27.112 37.7039936,27.7329938 38.976,28.975 C40.2480064,30.2170062 40.884,31.7649907 40.884,33.619 C40.884,35.4730093 40.2480064,37.0209938 38.976,38.263 C37.7039936,39.5050062 36.1320094,40.126 34.26,40.126 L34.26,40.126 L34.26,40.126 Z M49.364,36.472 L52.172,27.418 L54.08,27.418 L56.888,36.472 L60.056,27.418 L62.342,27.418 L57.95,40 L55.844,40 L53.198,31.378 L53.054,31.378 L50.408,40 L48.302,40 L43.91,27.418 L46.196,27.418 L49.364,36.472 L49.364,36.472 Z M75.36,29.398 L75.36,32.854 L80.94,32.854 L80.94,34.816 L75.36,34.816 L75.36,40 L73.236,40 L73.236,27.418 L81.624,27.418 L81.606,29.398 L75.36,29.398 L75.36,29.398 Z M87.116,37.138 L85.856,40 L83.588,40 L89.132,27.418 L91.4,27.418 L96.944,40 L94.676,40 L93.416,37.138 L87.116,37.138 L87.116,37.138 Z M92.552,35.176 L90.266,29.992 L87.98,35.176 L92.552,35.176 L92.552,35.176 Z M102.976,29.452 C102.579998,29.7040013 102.382,30.0849974 102.382,30.595 C102.382,31.1050025 102.579998,31.4949986 102.976,31.765 C103.372002,32.0350014 104.214994,32.3259984 105.505,32.638 C106.795006,32.9500016 107.766997,33.3879972 108.421,33.952 C109.075003,34.5160028 109.402,35.3469945 109.402,36.445 C109.402,37.5430055 108.988004,38.4339966 108.16,39.118 C107.331996,39.8020034 106.246007,40.144 104.902,40.144 C102.93399,40.144 101.188008,39.4660068 99.664,38.11 L100.996,36.508 C102.268006,37.6120055 103.587993,38.164 104.956,38.164 C105.640003,38.164 106.182998,38.0170015 106.585,37.723 C106.987002,37.4289985 107.188,37.0390024 107.188,36.553 C107.188,36.0669976 106.999002,35.6890013 106.621,35.419 C106.242998,35.1489986 105.592005,34.9030011 104.668,34.681 C103.743995,34.4589989 103.042002,34.2550009 102.562,34.069 C102.081998,33.8829991 101.656002,33.6400015 101.284,33.34 C100.539996,32.7759972 100.168,31.9120058 100.168,30.748 C100.168,29.5839942 100.590996,28.6870031 101.437,28.057 C102.283004,27.4269968 103.329994,27.112 104.578,27.112 C105.382004,27.112 106.179996,27.2439987 106.972,27.508 C107.764004,27.7720013 108.447997,28.1439976 109.024,28.624 L107.89,30.226 C107.517998,29.8899983 107.014003,29.6140011 106.378,29.398 C105.741997,29.1819989 105.115003,29.074 104.497,29.074 C103.878997,29.074 103.372002,29.1999987 102.976,29.452 L102.976,29.452 L102.976,29.452 Z M114.03,40 L114.03,27.418 L116.154,27.418 L116.154,32.872 L122.4,32.872 L122.4,27.418 L124.524,27.418 L124.524,40 L122.4,40 L122.4,34.852 L116.154,34.852 L116.154,40 L114.03,40 L114.03,40 Z M130.016,27.418 L132.14,27.418 L132.14,40 L130.016,40 L130.016,27.418 L130.016,27.418 Z M143.446,29.056 C142.197994,29.056 141.145004,29.4999956 140.287,30.388 C139.428996,31.2760044 139,32.3529937 139,33.619 C139,34.8850063 139.428996,35.9619956 140.287,36.85 C141.145004,37.7380044 142.197994,38.182 143.446,38.182 C144.694006,38.182 145.746996,37.7380044 146.605,36.85 C147.463004,35.9619956 147.892,34.8850063 147.892,33.619 C147.892,32.3529937 147.463004,31.2760044 146.605,30.388 C145.746996,29.4999956 144.694006,29.056 143.446,29.056 L143.446,29.056 L143.446,29.056 Z M143.446,40.126 C141.573991,40.126 140.002006,39.5050062 138.73,38.263 C137.457994,37.0209938 136.822,35.4730093 136.822,33.619 C136.822,31.7649907 137.457994,30.2170062 138.73,28.975 C140.002006,27.7329938 141.573991,27.112 143.446,27.112 C145.318009,27.112 146.889994,27.7329938 148.162,28.975 C149.434006,30.2170062 150.07,31.7649907 150.07,33.619 C150.07,35.4730093 149.434006,37.0209938 148.162,38.263 C146.889994,39.5050062 145.318009,40.126 143.446,40.126 L143.446,40.126 L143.446,40.126 Z M164.184,27.418 L166.308,27.418 L166.308,40 L164.004,40 L156.876,30.82 L156.876,40 L154.752,40 L154.752,27.418 L156.876,27.418 L164.184,36.814 L164.184,27.418 L164.184,27.418 Z" id="FLOW-FASHION-Logo"></path>
            </g>
        </g>
    </g>
</svg>